PathFileType	4	(X/Y/Z)	 s10c0103.trc
DataRate	CameraRate	NumFrames	NumMarkers	Units	OrigDataRate	OrigDataStartFrame	OrigNumFrames
200	200	4	50	mm	200	1001	2000
Frame#	Time	racr			lacr			c7			jug			rlel			rdr			llel			ldr			s2			lic			ric			lasi			rasi			rpsi			lpsi			rgt			lgt			rth1			rth2			rth3			rth4			rlfc			rmfc			rsh1			rsh2			rsh3			rsh4			rlmal			rmmal			rcal			rtoe			rmt5			lth1			lth2			lth4			lth3			llfc			lmfc			llmal			lmmal			lcal			lmt5			lsh1			lsh2			lsh3			lsh4			ltoe			SBIKE			LBIKE			RBIKE			
		X1	Y1	Z1	X2	Y2	Z2	X3	Y3	Z3	X4	Y4	Z4	X5	Y5	Z5	X6	Y6	Z6	X7	Y7	Z7	X8	Y8	Z8	X9	Y9	Z9	X10	Y10	Z10	X11	Y11	Z11	X12	Y12	Z12	X13	Y13	Z13	X14	Y14	Z14	X15	Y15	Z15	X16	Y16	Z16	X17	Y17	Z17	X18	Y18	Z18	X19	Y19	Z19	X20	Y20	Z20	X21	Y21	Z21	X22	Y22	Z22	X23	Y23	Z23	X24	Y24	Z24	X25	Y25	Z25	X26	Y26	Z26	X27	Y27	Z27	X28	Y28	Z28	X29	Y29	Z29	X30	Y30	Z30	X31	Y31	Z31	X32	Y32	Z32	X33	Y33	Z33	X34	Y34	Z34	X35	Y35	Z35	X36	Y36	Z36	X37	Y37	Z37	X38	Y38	Z38	X39	Y39	Z39	X40	Y40	Z40	X41	Y41	Z41	X42	Y42	Z42	X43	Y43	Z43	X44	Y44	Z44	X45	Y45	Z45	X46	Y46	Z46	X47	Y47	Z47	X48	Y48	Z48	X49	Y49	Z49	X50	Y50	Z50	
1001	5.0050	407.700217	1280.276902	-31.611387	472.248365	1288.152783	-333.631543	385.509882	1331.772625	-195.290353	406.042129	1190.768838	-203.161583	463.503705	1022.491885	37.617887	642.270533	879.871236	-16.577508	518.721941	1033.173670	-463.372637	660.465058	884.083206	-375.216900	-111.966997	1078.434829	-237.859125	49.779267	1099.785351	-399.382951	61.326483	1111.375145	-106.602026	84.274944	1014.773237	-371.147608	79.062782	1034.813143	-113.180305	-80.676670	1141.964264	-187.508620	-69.902062	1145.699476	-302.149954	-12.337217	1003.776794	-42.899523	-42.395784	948.822249	-421.094192	106.150956	932.466070	-31.493815	194.239417	923.158833	-48.395703	263.122203	872.945936	-52.176494	204.178158	956.689851	-63.916316	354.987304	817.215396	-74.557147	329.412387	792.654019	-190.223825	268.362597	745.017562	-32.994015	220.800155	670.106393	-43.960026	145.982092	627.777550	-39.703807	239.696179	652.839147	-72.536874	65.039204	566.203639	-46.881033	88.727334	557.506358	-128.825503	25.993831	596.868441	-97.567053	135.832893	379.786430	-94.004578	68.015336	435.915938	-35.577208	32.781510	835.683784	-429.740759	103.273471	786.624727	-415.507813	131.069746	810.217147	-412.321809	136.879676	706.501778	-394.279191	214.715558	625.647527	-373.910583	209.838821	621.532340	-261.200205	158.438302	250.883181	-373.061928	173.223613	257.816087	-293.044123	113.112168	205.849233	-329.722159	293.611710	192.499412	-387.095132	166.790898	509.107215	-406.659680	190.549186	426.025162	-392.867615	167.073487	340.096371	-386.557891	219.752442	429.584479	-368.366930	364.196312	242.860429	-327.016204	-204.256818	832.216364	-225.444143	-78.181695	81.537650	-423.663836	-102.469923	80.485649	-24.390233	
1002	5.0100	406.148190	1280.562399	-29.598272	472.327243	1288.720769	-329.804828	384.182680	1331.856237	-193.615841	406.389864	1191.101560	-201.361123	462.713719	1022.620579	39.562709	642.007024	880.881371	-16.963425	520.100056	1035.102290	-462.674424	660.574617	884.171520	-375.113470	-111.858986	1077.845909	-242.397877	53.007422	1098.806460	-400.582349	59.300176	1112.364556	-107.976764	86.115359	1014.041336	-370.339442	77.428658	1036.163420	-113.662278	-81.703232	1141.110805	-192.331870	-68.738385	1145.033306	-306.110223	-15.057687	1006.188523	-45.275556	-39.100882	948.245207	-422.733389	107.557112	938.171190	-31.840841	194.188188	930.575051	-49.564832	264.680792	882.533213	-52.652917	202.714281	963.891444	-65.511214	359.500364	829.651031	-75.430730	334.983872	804.572716	-191.777406	273.967982	756.091934	-33.771551	227.846229	680.460225	-44.419903	153.785393	636.978370	-40.081424	247.127093	663.351309	-72.776999	73.729853	574.129430	-46.603773	98.904756	565.780052	-127.762687	34.559350	604.659055	-97.176909	143.969292	387.245144	-93.712934	76.487590	443.816253	-35.499711	33.276383	835.093752	-430.460454	101.680038	783.378955	-415.478580	129.825826	805.592350	-411.157056	132.148371	702.056538	-394.379660	206.827851	618.217435	-373.682431	198.697825	613.349350	-259.803790	150.813319	244.758828	-372.837574	165.812056	251.225706	-292.946013	105.451136	200.370213	-329.616709	285.812382	185.008543	-387.306675	159.157628	503.347080	-406.256917	183.169904	420.326657	-392.272603	159.956894	334.352335	-386.301381	212.147787	424.051902	-367.520272	357.030556	234.330947	-327.287604	-204.260429	832.281093	-225.535439	-78.197475	81.543311	-423.662818	-102.487544	80.491247	-24.394377	
1003	5.0150	404.701393	1280.815570	-27.645383	472.318098	1289.296502	-326.105144	383.040966	1331.947229	-192.105774	406.695035	1191.421831	-199.692339	461.890968	1022.867837	41.291539	641.806275	881.510693	-16.554501	521.130093	1036.932779	-462.131125	660.678615	884.257715	-375.076651	-111.656660	1077.316220	-246.567435	56.295496	1097.924270	-401.469006	57.290944	1113.613029	-109.398837	88.019169	1013.546828	-369.102681	75.650336	1037.966515	-114.161698	-82.732484	1140.877044	-196.032962	-67.476486	1144.347999	-309.886135	-17.801353	1009.154636	-47.669290	-35.806096	947.845080	-424.232800	106.341478	942.734259	-32.925672	193.909923	938.103443	-49.855291	265.759092	892.050637	-52.908039	201.440557	971.417103	-66.388250	363.658178	842.242931	-76.388117	340.373509	816.447552	-193.145478	279.716047	767.270656	-34.523215	234.831755	690.795921	-44.724317	161.465665	646.025046	-40.529624	254.533677	673.589495	-72.760316	82.209741	581.620504	-46.463192	106.474927	573.165137	-128.278963	42.531590	611.785776	-96.700325	152.099523	394.598970	-93.765773	85.344202	451.308746	-35.426883	33.911267	834.636914	-431.114352	100.290892	780.463881	-415.732389	129.045993	801.730156	-410.570136	127.868126	697.949844	-395.058156	199.149527	611.960667	-373.765099	188.929202	607.189753	-258.289761	143.054639	239.610869	-372.716331	158.244553	245.386825	-292.932709	97.542476	195.684911	-329.658134	277.531755	178.095296	-387.644935	151.660740	498.244543	-406.077892	175.630038	415.217577	-391.773242	152.769362	329.280575	-386.324144	204.432300	418.975558	-366.806270	349.512557	226.431538	-327.558461	-204.259557	832.295599	-225.587372	-78.212409	81.572500	-423.703589	-102.544517	80.545468	-24.443840	
1004	5.0200	403.276535	1281.095863	-25.741872	472.269478	1289.841699	-322.571203	381.944063	1331.883681	-190.787300	407.206728	1191.622842	-198.038805	461.321123	1022.890952	42.773066	641.659989	881.990486	-15.426422	522.044435	1038.488552	-461.074898	660.804788	884.335083	-375.059416	-111.310442	1076.852466	-250.337381	59.513615	1097.058139	-402.040044	54.921602	1115.007670	-110.837496	90.070624	1013.211507	-367.546885	73.822030	1040.039797	-114.609383	-81.486564	1139.933226	-201.899611	-66.112108	1143.756594	-313.437239	-20.717518	1012.542941	-49.774475	-32.784968	947.467846	-425.597144	105.839303	947.481925	-34.039079	193.318906	945.508575	-50.603613	266.433144	901.434615	-52.938546	199.892079	978.896877	-67.126757	367.338153	855.108766	-76.981339	345.704186	828.458153	-194.560859	285.052112	778.395432	-34.989138	241.673437	701.071719	-44.926526	168.985445	654.930923	-40.964112	261.732672	684.337317	-73.118764	90.111653	588.819792	-46.412864	116.818468	581.888078	-128.820721	49.756009	618.657489	-97.065197	162.196460	402.814642	-92.563042	94.515179	458.284680	-35.265657	34.522774	834.259482	-431.780033	99.076795	777.999373	-416.268277	128.407755	798.384677	-410.165239	124.105647	694.473051	-396.243617	191.692717	606.939608	-373.969652	177.456451	601.366648	-258.458498	135.159343	235.273358	-372.846673	150.554561	240.405344	-293.182369	89.247838	191.795705	-329.740626	268.948041	171.701242	-387.942517	144.368501	493.893658	-406.371304	168.135789	410.972034	-391.758911	145.358631	325.002579	-386.623813	196.801621	414.624051	-366.633224	341.608490	219.266819	-328.514773	-204.238819	832.305573	-225.617500	-78.250411	81.565026	-423.717067	-102.595557	80.577059	-24.484468	
